<?xml version="1.0" encoding="utf-8"?>
<!-- Generator: Adobe Illustrator 26.0.2, SVG Export Plug-In . SVG Version: 6.00 Build 0)  -->
<svg version="1.1" id="레이어_1" xmlns="http://www.w3.org/2000/svg" xmlns:xlink="http://www.w3.org/1999/xlink" x="0px"
	 y="0px" viewBox="0 0 21 21" style="enable-background:new 0 0 21 21;" xml:space="preserve">
<style type="text/css">
	.st0{fill:#1DA1F2;}
</style>
<path class="st0" d="M0,11C0,11,0,11,0,11L0,11C0,11,0,11,0,11z"/>
<path class="st0" d="M13.1,6.8l-3.8,5.7l-1.8-1.8c-0.3-0.3-0.8-0.3-1.1,0c-0.3,0.3-0.3,0.8,0,1.1l2.4,2.4L9,14.4
	c0.1,0.1,0.3,0.1,0.4,0.1c0.2,0,0.5-0.1,0.6-0.3l4.3-6.5v0c0.2-0.3,0.1-0.8-0.2-1C13.8,6.4,13.4,6.5,13.1,6.8z"/>
</svg>
