<svg width="18" height="18" viewBox="0 0 18 18" fill="none" xmlns="http://www.w3.org/2000/svg">
<path d="M10.5343 1.68145L7.42328 1.67395H7.42178C4.14128 1.67395 1.57178 4.2442 1.57178 7.52545C1.57178 10.599 3.96128 12.9299 7.17053 13.0529V15.924C7.17053 16.005 7.20353 16.1384 7.26053 16.2262C7.36703 16.3949 7.54853 16.4865 7.73453 16.4865C7.83803 16.4865 7.94228 16.458 8.03603 16.398C8.23403 16.2719 12.8908 13.2929 14.102 12.2684C15.5285 11.0609 16.382 9.29095 16.3843 7.53445V7.5217C16.3798 4.24645 13.8118 1.68145 10.5343 1.6807V1.68145ZM13.3745 11.4104C12.524 12.1304 9.72803 13.9642 8.29553 14.8927V12.5024C8.29553 12.1919 8.04428 11.9399 7.73303 11.9399H7.43603C4.69103 11.9399 2.69753 10.083 2.69753 7.52545C2.69753 4.87495 4.77353 2.79895 7.42253 2.79895L10.5328 2.80645H10.5343C13.1833 2.80645 15.2593 4.88095 15.2608 7.52845C15.2585 8.96095 14.5543 10.4114 13.3753 11.4104H13.3745Z" fill="#5B7083"/>
</svg>
