<svg width="16" height="15" viewBox="0 0 16 15" fill="none" xmlns="http://www.w3.org/2000/svg">
<path d="M7.5375 14.1855H7.527C5.58975 14.1495 0 9.099 0 4.3155C0 2.0175 1.89375 0 4.05225 0C5.76975 0 6.92475 1.185 7.53675 2.0475C8.14725 1.1865 9.30225 0 11.0205 0C13.1805 0 15.0735 2.0175 15.0735 4.31625C15.0735 9.09825 9.483 14.1487 7.54575 14.184H7.5375V14.1855ZM4.053 1.12575C2.493 1.12575 1.12575 2.61675 1.12575 4.317C1.12575 8.622 6.40125 13.014 7.53825 13.0605C8.67675 13.014 13.9508 8.62275 13.9508 4.317C13.9508 2.61675 12.5835 1.12575 11.0235 1.12575C9.1275 1.12575 8.0685 3.32775 8.0595 3.3495C7.887 3.771 7.1925 3.771 7.01925 3.3495C7.00875 3.327 5.9505 1.12575 4.05375 1.12575H4.053Z" fill="#828282"/>
</svg>
