<svg width="24" height="24" viewBox="0 0 24 24" fill="none" xmlns="http://www.w3.org/2000/svg">
<path d="M19.25 3.01794H4.75C3.233 3.01794 2 4.25194 2 5.76994V18.2649C2 19.7829 3.233 21.0179 4.75 21.0179H19.25C20.767 21.0179 22 19.7829 22 18.2649V5.76994C22 4.25194 20.767 3.01794 19.25 3.01794ZM4.75 4.51794H19.25C19.94 4.51794 20.5 5.07794 20.5 5.76794V6.48194L12.45 11.8489C12.177 12.0289 11.824 12.0309 11.55 11.8469L3.5 6.48194V5.76794C3.5 5.07794 4.06 4.51794 4.75 4.51794V4.51794ZM19.25 19.5159H4.75C4.06 19.5159 3.5 18.9559 3.5 18.2659V8.23994L10.74 13.0699C11.123 13.3259 11.562 13.4539 12 13.4539C12.44 13.4539 12.877 13.3259 13.26 13.0709L20.5 8.24094V18.2629C20.5 18.9529 19.94 19.5129 19.25 19.5129V19.5159Z" fill="#0F1419"/>
</svg>
