<svg width="18" height="18" viewBox="0 0 18 18" fill="none" xmlns="http://www.w3.org/2000/svg">
<path d="M17.8277 11.7526C17.6087 11.5328 17.2524 11.5328 17.0327 11.7526L15.3677 13.4176V5.73756C15.3677 4.18656 14.1054 2.92506 12.5552 2.92506H8.16766C7.85716 2.92506 7.60516 3.17706 7.60516 3.48756C7.60516 3.79806 7.85716 4.05006 8.16766 4.05006H12.5552C13.4852 4.05006 14.2427 4.80756 14.2427 5.73756V13.4176L12.5777 11.7526C12.3579 11.5328 12.0017 11.5328 11.7827 11.7526C11.5637 11.9723 11.5622 12.3286 11.7827 12.5476L14.4077 15.1726C14.5164 15.2828 14.6604 15.3376 14.8052 15.3376C14.9499 15.3376 15.0924 15.2836 15.2027 15.1726L17.8277 12.5476C18.0482 12.3286 18.0482 11.9723 17.8277 11.7526ZM9.83266 14.2126H5.44516C4.51516 14.2126 3.75766 13.4551 3.75766 12.5251V4.84506L5.42266 6.51006C5.53366 6.62031 5.67766 6.67506 5.82166 6.67506C5.96566 6.67506 6.10966 6.62031 6.21916 6.51006C6.43891 6.29031 6.43891 5.93406 6.21916 5.71506L3.59416 3.09006C3.37441 2.86956 3.01816 2.86956 2.79916 3.09006L0.174164 5.71506C-0.0463359 5.93406 -0.0463359 6.29031 0.174164 6.51006C0.394664 6.72981 0.749414 6.72981 0.969164 6.51006L2.63416 4.84506V12.5251C2.63416 14.0761 3.89641 15.3376 5.44666 15.3376H9.83416C10.1447 15.3376 10.3967 15.0856 10.3967 14.7751C10.3967 14.4646 10.1439 14.2126 9.83416 14.2126H9.83266Z" fill="#5B7083"/>
</svg>
