<svg width="16" height="16" viewBox="0 0 16 16" fill="none" xmlns="http://www.w3.org/2000/svg">
<path d="M15.4613 14.6221L12.5638 11.7246C13.6127 10.4817 14.25 8.87775 14.25 7.125C14.25 3.19042 11.0596 0 7.125 0C3.19042 0 0 3.19042 0 7.125C0 11.0596 3.19042 14.25 7.125 14.25C8.87854 14.25 10.4817 13.6135 11.723 12.5638L14.6205 15.4613C14.7369 15.5768 14.8897 15.6354 15.0401 15.6354C15.1905 15.6354 15.3449 15.5776 15.4597 15.4613C15.6932 15.2293 15.6932 14.854 15.4613 14.6221V14.6221ZM1.1875 7.125C1.1875 3.85146 3.85146 1.1875 7.125 1.1875C10.3985 1.1875 13.0625 3.85146 13.0625 7.125C13.0625 10.3985 10.3985 13.0625 7.125 13.0625C3.85146 13.0625 1.1875 10.3985 1.1875 7.125Z" fill="#5B7083"/>
</svg>
