<?xml version="1.0" encoding="utf-8"?>
<!-- Generator: Adobe Illustrator 26.0.2, SVG Export Plug-In . SVG Version: 6.00 Build 0)  -->
<svg version="1.1" id="레이어_1" xmlns="http://www.w3.org/2000/svg" xmlns:xlink="http://www.w3.org/1999/xlink" x="0px"
	 y="0px" viewBox="0 0 24 24" style="enable-background:new 0 0 24 24;" xml:space="preserve">
<style type="text/css">
	.st0{fill:#0095ED;}
</style>
<path class="st0" d="M23.6,4.9c-0.8,0.4-1.7,0.6-2.7,0.7c1-0.6,1.7-1.5,2-2.6c-0.9,0.5-1.9,0.9-3,1.1c-0.9-0.9-2.1-1.5-3.4-1.5
	c-2.6,0-4.7,2.1-4.7,4.7c0,0.4,0,0.7,0.1,1.1c-3.9-0.2-7.3-2-9.6-4.9C2.1,4.3,1.9,5.1,1.9,5.9c0,1.6,0.8,3,2.1,3.9
	c-0.8,0-1.5-0.2-2.1-0.6v0.1c0,2.3,1.6,4.1,3.7,4.6C5.2,14,4.8,14,4.4,14c-0.3,0-0.6,0-0.9-0.1c0.6,1.8,2.3,3.2,4.4,3.2
	c-1.6,1.2-3.6,2-5.8,2c-0.4,0-0.7,0-1.1-0.1c2.1,1.3,4.5,2.1,7.1,2.1c8.6,0,13.3-7.1,13.3-13.3c0-0.2,0-0.4,0-0.6
	C22.2,6.7,23,5.9,23.6,4.9L23.6,4.9z"/>
</svg>
